<svg xmlns="http://www.w3.org/2000/svg" viewBox="0 0 24 24" fill="none" stroke="#2496ed" stroke-width="1.6" stroke-linecap="round" stroke-linejoin="round">
  <rect x="3" y="9" width="3" height="3" rx="0.4"/>
  <rect x="6.5" y="9" width="3" height="3" rx="0.4"/>
  <rect x="10" y="9" width="3" height="3" rx="0.4"/>
  <rect x="6.5" y="5.5" width="3" height="3" rx="0.4"/>
  <rect x="10" y="5.5" width="3" height="3" rx="0.4"/>
  <rect x="13.5" y="9" width="3" height="3" rx="0.4"/>
  <path d="M2 12.5c0 3 2.2 5.5 6 5.5 5.5 0 9.5-2.8 11-7 1.6.4 2.6-.3 3-1.2-1-.6-2.1-.4-2.7 0-.3-1-1-1.8-1.8-2.2"/>
</svg>
